<?xml version="1.0" standalone="no"?><!DOCTYPE svg PUBLIC "-//W3C//DTD SVG 1.1//EN" "http://www.w3.org/Graphics/SVG/1.1/DTD/svg11.dtd"><svg t="1585793359122" class="icon" viewBox="0 0 1024 1024" version="1.1" xmlns="http://www.w3.org/2000/svg" p-id="2692" xmlns:xlink="http://www.w3.org/1999/xlink" width="200" height="200"><defs><style type="text/css"></style></defs><path d="M405.333333 725.333333l85.333333 0 0-85.333333-85.333333 0L405.333333 725.333333zM554.666667 512l-85.333333 0 0 85.333333 85.333333 0L554.666667 512zM426.666667 512l-85.333333 0 0 85.333333 85.333333 0L426.666667 512zM512 42.666667l-170.666667 170.666667 341.333333 0L512 42.666667zM682.666667 512l-85.333333 0 0 85.333333 85.333333 0L682.666667 512zM533.333333 725.333333l85.333333 0 0-85.333333-85.333333 0L533.333333 725.333333zM298.666667 512l-85.333333 0 0 85.333333 85.333333 0L298.666667 512zM725.333333 597.333333l85.333333 0 0-85.333333-85.333333 0L725.333333 597.333333zM853.333333 384 170.666667 384c-46.933333 0-85.333333 38.4-85.333333 85.333333l0 426.666667c0 46.933333 38.4 85.333333 85.333333 85.333333l682.666667 0c46.933333 0 85.333333-38.4 85.333333-85.333333L938.666667 469.333333C938.666667 422.4 900.266667 384 853.333333 384zM896 896c0 23.466667-19.2 42.666667-42.666667 42.666667L170.666667 938.666667c-23.466667 0-42.666667-19.2-42.666667-42.666667L128 469.333333c0-23.466667 19.2-42.666667 42.666667-42.666667l682.666667 0c23.466667 0 42.666667 19.2 42.666667 42.666667L896 896zM661.333333 725.333333l85.333333 0 0-85.333333-85.333333 0L661.333333 725.333333zM320 853.333333l384 0 0-85.333333L320 768 320 853.333333zM362.666667 640l-85.333333 0 0 85.333333 85.333333 0L362.666667 640z" p-id="2693"></path></svg>