<?xml version="1.0" encoding="UTF-8"?>
<svg width="86px" height="43px" viewBox="0 0 86 43" version="1.1" xmlns="http://www.w3.org/2000/svg" xmlns:xlink="http://www.w3.org/1999/xlink">
    <!-- Generator: Sketch 52.5 (67469) - http://www.bohemiancoding.com/sketch -->
    <title>组件库切图</title>
    <desc>Created with Sketch.</desc>
    <g id="商城装修-新建首页/基础组件" stroke="none" stroke-width="1" fill="none" fill-rule="evenodd">
        <g id="组件库切图" transform="translate(-311.000000, -589.000000)" fill="#D8D8D8">
            <path d="M363.443243,617.257893 L372.787608,604.663315 C374.103917,602.889159 376.609233,602.518002 378.383388,603.83431 C378.698939,604.068429 378.978273,604.347763 379.212392,604.663315 L394.263938,624.950181 C395.580247,626.724336 395.209089,629.229652 393.434934,630.545961 C392.745561,631.057431 391.909938,631.333569 391.051546,631.333569 L316,631.333569 C313.790861,631.333569 312,629.542708 312,627.333569 C312,626.468088 312.280711,625.625953 312.8,624.933569 L337.8,591.600235 C339.125483,589.832924 341.632689,589.474752 343.4,590.800235 C343.703223,591.027652 343.972583,591.297013 344.2,591.600235 L363.443243,617.257893 Z M387,601.333569 C384.238576,601.333569 382,599.094992 382,596.333569 C382,593.572145 384.238576,591.333569 387,591.333569 C389.761424,591.333569 392,593.572145 392,596.333569 C392,599.094992 389.761424,601.333569 387,601.333569 Z" id="Shape"></path>
        </g>
    </g>
</svg>